<?xml version="1.0" encoding="utf-8"?>
<!-- Generator: Adobe Illustrator 22.1.0, SVG Export Plug-In . SVG Version: 6.00 Build 0)  -->
<svg version="1.1" xmlns="http://www.w3.org/2000/svg" xmlns:xlink="http://www.w3.org/1999/xlink" x="0px" y="0px"
	 viewBox="0 0 361.5 253.3" style="enable-background:new 0 0 361.5 253.3;" xml:space="preserve">
<style type="text/css">
	.st0{fill:#FFD631;}
	.st1{fill:#FF92B9;}
	.st2{fill:#FFFFFF;}
</style>
<g id="Layer_1" focusable="false">
</g>
<g id="Layer_3">
	<g>
		<circle cx="176.6" cy="227.5" r="25.8"/>
		<circle cx="268.8" cy="228.9" r="24.4"/>
		<path d="M352.2,53.1c-20.3-6.3-61.4-16-122.7-15.6c-49.5,0.3-92.8,7.7-122,14.4C98.1,32,90.1,16.4,85.1,7
			c-3.1-5.8-10-8.5-16.3-6.2C49.5,7.8,24,19.9,7.4,28.1c-8.3,4.1-9.9,15.3-3.2,21.6c4.2,3.9,10.5,4.7,15.6,1.8
			c10.8-6.1,27.5-14.8,27.5-14.8c25.7,30.9,53,80.6,70.4,114.6c7.5,15.1,13.6,28.2,17.5,36.4c2.4,5.2,8,8.3,13.7,7.5
			c13.9-1.8,40.7-4.7,66.5-4c32,0.9,56.2,4.3,68.7,6.4c5.7,1,11.3-1.8,14-6.9l62-118.8C363.8,64.6,360.1,55.6,352.2,53.1z
			 M162.8,118.5c-10.2,0-18.5-8.3-18.5-18.5c0-10.2,8.3-18.5,18.5-18.5s18.5,8.3,18.5,18.5C181.3,110.2,173,118.5,162.8,118.5z
			 M244.1,114.8c-3.1,11.9-11.9,20.4-22.3,20.4s-19.2-8.6-22.3-20.4c-1.2-4.7,2.3-9.3,7.1-9.3H237
			C241.9,105.6,245.3,110.1,244.1,114.8z M280.8,118.5c-10.2,0-18.5-8.3-18.5-18.5c0-10.2,8.3-18.5,18.5-18.5s18.5,8.3,18.5,18.5
			C299.3,110.2,291,118.5,280.8,118.5z"/>
	</g>
</g>
</svg>
